<?xml version="1.0" encoding="UTF-8"?>
<svg id="Layer_1" xmlns="http://www.w3.org/2000/svg" viewBox="0 0 590 200.37">
  <path d="M362.67,7.01c2.04,1.15,2.78,3.23,3.57,5.22,2.46,6.22,2.13,12.59.62,18.92-2.74,11.53-7.55,22.17-14.47,31.82-8.11,11.34-19.25,15.65-32.92,14.13-11.21-1.25-21.31-5.73-31.33-10.5-1.86-.88-3.69-1.85-5.54-2.74-.18-.08-.42-.03-1.01-.05-11.8,16.76-23.35,33.93-34.17,51.84.73.27,1.21.56,1.7.6,4.22.34,8.45.61,12.67.95,1.52.12,2.57-.52,3.74-1.47,1.82-1.49,3.88-2.7,5.96-3.83.8-.43,1.92-.53,2.84-.41,1.55.2,2.96.96,3.57,2.5.6,1.49-.58,2.44-1.51,3.33-3.12,2.93-6.57,5.31-11.19,6.02-.12,1.01-.24,2.01-.45,3.57,1.81-.38,3.21-.45,4.43-.98,2.88-1.25,5.7-2.63,8.49-4.1,2.69-1.41,5.3-2.97,7.93-4.5,1.02-.58,1.75-1.37,2.53-2.31.99-1.21,2.81-1.86,4.39-2.4,1.25-.43,2.25.42,3.04,1.81-.96.77-1.94,1.58-3.06,2.49,1.97,2.11,5.5,3.1,4.93,7.17,1.03-.43,1.82-.71,2.55-1.09,4.25-2.16,8.48-4.39,12.74-6.52,4.05-2.02,8.16-2.92,12.47-.64.57.3,1.44.24,2.12.1,2.55-.6,3.48-.31,4.88,1.79.29.43.46.94.79,1.62,2.7-1.47,5.26-2.88,7.82-4.25,1.05-.56,2.12-1.09,3.19-1.6,1.25-.6,2.32-.23,3.23.72.84.87.53,1.82.05,2.7-1.01,1.89-2.06,3.75-3.19,5.8,3.04-1.09,8.18-4.84,12.63-9.18.86.46,1.82.99,2.91,1.59-1.34,2.58-2.51,4.86-4.02,7.76,1.33-.34,2.08-.35,2.61-.71,3.83-2.47,7.62-5,11.38-7.55.61-.41,1.06-1.07,1.53-1.66,1.78-2.19,1.97-2.19,4.37.08-2.44,2.15-2.96,4.81-1.85,8.11.76-.23,1.47-.37,2.09-.65,1.97-.91,3.91-1.87,5.85-2.84,1.74-.87,3.31-1.85,4.63-3.44,2.55-3.08,5.79-3.4,8.16-.95.9.92,1.26,2.35,2.02,3.86,2.38-.56,4.07-2.81,6.56-4.33.64.45,1.39.96,2.24,1.56-1.06,2.2-2.02,4.2-2.97,6.19.15.14.3.26.45.39.6-.33,1.28-.54,1.78-.98,3.49-3.08,6.94-6.23,10.43-9.32.92-.81,1.64-2.34,3.19-1.81,1.66.57,2.54,1.86,2.68,3.72.26,3.42,2.25,5.45,5.42,6.61,4.93,1.83,10.06,2.65,15.24,3.29,16.08,2,32.27,2.3,48.45,2.59,26.83.5,53.65.88,80.46,1.43,5.85.12,11.71.64,17.56,1.01.71.04,1.4.24,2.09.79-3.56.19-7.13.56-10.69.56-23.57-.05-47.13-.1-70.71-.31-13.24-.12-26.5-.48-39.74-.95-10.53-.38-21.04-1.11-31.42-3.15-2.23-.43-4.46-.96-6.64-1.63-6-1.82-9.53-4.55-13.3-10.21-.81.72-1.59,1.43-2.4,2.09-3.45,2.81-6.76,5.8-10.39,8.35-2.76,1.94-5.28.43-5.62-2.99-.04-.39-.08-.8-.15-1.4-2.77,1.2-5.15,2.32-6.66,5.07-.95,1.72-2.69,3.07-4.21,4.43-1.22,1.09-2.55.86-3.84-.15-1.29-1.02-1.71-2.21-1.07-3.71.6-1.4,1.3-2.74,1.89-4.16.18-.43.12-.98.18-1.49-2.43.05-5.19,1.3-10.92,4.89.11,1.2.2,2.57.37,3.94.9,7.27-4.67,14.61-11.97,15.78-2.51.41-4.54-.58-6.06-2.4-.6-.72-.92-2.08-.71-2.99.35-1.53,1.06-3.08,1.94-4.4,2.15-3.21,5.15-5.56,8.37-7.63,1.55-.99,3.14-1.93,4.96-3.04-.3-1.52-.6-3.07-.99-5.12-1.33.88-2.38,1.6-3.44,2.28-2.47,1.58-4.97,3.1-7.43,4.69-2.49,1.62-5.05,1.24-6.91-2.24-.15-.27-.31-.54-.5-.88-2.88,2.04-5.69,4.06-8.53,6.04-1.02.72-2.06,1.07-3.33.33-2-1.17-2.49-2.16-1.44-4.24,1.22-2.4,2.69-4.69,4.16-7.19-1.24-.35-2.05.49-2.89.91-2.51,1.28-5.56,2.15-7.29,4.13-1.64,1.87-1.89,4.96-2.76,7.51-5.62,16.54-14.41,31.08-27.35,42.95-3.22,2.95-6.72,5.51-10.85,7.09-2.68,1.03-5.27,1.02-7.88-.3-2.05-1.05-3.35-2.65-3.11-4.89.29-2.66.75-5.39,1.67-7.89,2.31-6.28,6.03-11.78,10.34-16.86,7.96-9.39,17.62-16.71,28.14-22.95,1.96-1.17,3.91-2.35,5.95-3.37,1.45-.73,2.17-1.72,1.94-3.65-.8.2-1.6.33-2.35.58-2.55.9-5.07,1.96-7.65,2.76-3.31,1.02-6.63,1.41-9.47-1.53-3.22,1.85-6.32,3.63-9.4,5.41-1.41.81-2.78,1.7-4.24,2.43-2.43,1.24-2.73,1.14-5.23-1.36.76-1.05,1.56-2.16,2.36-3.26,2.19-2.97,2.88-4.85-2.27-6.23-3.57,2.12-7.27,4.4-11.04,6.51-2.74,1.52-5.58,2.89-8.46,4.16-1.72.76-3.65.94-5.37,0-3.12-1.71-5.13-3.25-3.38-7.88.22-.58.37-1.21.62-2.13-3.15,0-6.06.04-8.98,0-1.85-.03-3.71-.01-5.51-.34-1.81-.31-2.78.29-3.67,1.83-3.83,6.7-7.97,13.2-11.61,20.01-9.93,18.57-19.67,37.26-29.47,55.89-.45.86-.9,1.71-1.49,2.85-1.24-.31-2.42-.62-4.05-1.03.94-2.21,1.67-4.12,2.51-5.96,6.42-14.02,12.94-27.99,19.26-42.05,3.93-8.73,7.23-17.7,8.26-27.33.1-.87.19-1.74.18-2.59-.05-2.99.22-6.08-2.23-8.72,2.47.9,4.9,1.92,7.43,2.65,2.49.72,5.05,1.13,7.36,1.63,12.14-18.23,24.08-36.16,36.24-54.41-2.99-1.48-5.95-3-8.98-4.41-7.55-3.52-15.48-5.61-23.82-6.15-16.62-1.07-32.61,8.08-39.54,22.95-1.36,2.91-2.23,6.14-2.74,9.3-.37,2.24.26,4.65.45,7.04-2-1.48-2.78-3.64-2.93-6.1-.24-3.87.48-7.62,2.08-11.11,7.14-15.48,19.16-24.1,36.31-24.9,11.14-.52,21.42,2.92,31.27,7.81,2.91,1.44,5.79,2.95,8.9,4.54.64-.79,1.28-1.49,1.83-2.24,8.83-11.98,17.75-23.89,28.13-34.61,6.82-7.05,14.19-13.46,22.95-18.05C336.47,2.15,342.24-.03,348.61,0c5.27.03,9.71,2.04,13.34,5.83.35.37.5.91.75,1.37-5.96-5.42-12.81-5.65-20.07-3.41-4.92,1.52-9.43,3.84-13.68,6.71-6.52,4.39-12.28,9.64-17.64,15.35-9.62,10.23-17.97,21.45-26.13,32.83-.81,1.13-1.56,2.3-2.3,3.4.23.34.31.58.48.68,1.24.68,2.47,1.34,3.74,1.96,9.1,4.39,18.32,8.48,28.47,9.89,14.71,2.06,26.74-2.32,35.53-14.66,5.92-8.31,10.15-17.43,12.81-27.25.9-3.33,1.44-6.79,1.86-10.23.67-5.43-.86-10.5-3.14-15.38l.05-.08ZM327.63,124.17c-1.22.56-1.82.75-2.35,1.07-7.93,4.73-15.44,10.05-22.26,16.3-7.35,6.74-13.54,14.36-17.47,23.61-1.09,2.57-1.87,5.35-2.23,8.1-.57,4.47,1.41,6.06,5.45,4.21,3.22-1.47,6.32-3.4,9.07-5.61,8.56-6.9,14.94-15.66,20.31-25.17,3.9-6.9,6.98-14.15,9.49-22.51h-.01ZM358.58,140.69c8.71-.52,14.99-8.45,12.56-15.57-5.7,3.9-11.18,7.74-12.56,15.57ZM231.83,114.99c-.41,4.05-.54,7.74-1.18,11.33-.65,3.68-1.81,7.27-2.74,10.89.14.05.26.11.39.16,3.87-6.63,7.74-13.24,11.79-20.18-2.97-.79-5.65-1.49-8.26-2.19h0ZM323.61,116.89c-3.54,0-6.83.87-9.58,3.33,3.46-.23,6.63-1.37,9.58-3.33ZM266.98,120.12c.18.15.34.3.52.46,2.7-1.44,5.05-3.31,7.02-6-3.16-.34-3.65,3-5.91,3.68-.67.2-1.09,1.22-1.63,1.86h0ZM389.8,119.88c2.44-1.26,2.83-3.06,2.92-5.17-1.44.52-2.41,2.24-2.92,5.17Z"/>
  <path d="M72.54,199.88c.96-1.52,1.79-3.16,2.92-4.55,9.13-11.33,18.08-22.8,27.53-33.86,24.62-28.79,49.55-57.34,74.23-86.11,9.33-10.88,18.34-22.06,25.81-34.34,2.35-3.86,4.43-8.03,5.8-12.32,2.3-7.17.54-9.44-6.34-10.83-6.71-1.36-13.41-.58-20.07.52-14.32,2.38-28.05,6.79-41.59,11.82-29.42,10.91-57.44,24.65-83.68,41.93-14.82,9.77-28.92,20.43-41.05,33.48-4.31,4.63-8.31,9.49-11.06,15.23-.96,2.02-1.7,4.25-2.04,6.48-.53,3.44.81,5.01,4.18,5.73,4.03.86,8.01.16,11.97-.57,4.05-.75,8.05-1.75,12.09-2.61,1.07-.23,2.17-.31,3.26-.46.07.26.12.5.19.76-.83.38-1.62.92-2.49,1.11-5.81,1.3-11.61,2.73-17.49,3.71-4.16.69-8.2-.07-11.71-2.8-2.38-1.86-3.29-4.22-2.92-7.14.48-3.75,2.12-7.04,4.07-10.2,4.56-7.36,10.51-13.54,16.79-19.41,12.65-11.86,26.66-21.92,41.34-31.05,28.25-17.56,58.2-31.5,89.79-41.9,10.63-3.5,21.41-6.55,32.54-7.85,4.71-.56,9.53-.48,14.29-.33,3.41.11,6.63,1.26,9.17,3.72,4.16,4.02,5.23,8.83,3.65,14.33-1.49,5.16-4.02,9.83-6.82,14.37-5.58,9.09-12.01,17.56-18.73,25.82-18.72,22.99-38.59,45.01-58.3,67.15-15.09,16.95-30.37,33.74-45.58,50.58-3.06,3.38-6.15,6.71-9.24,10.08-.18-.15-.35-.3-.54-.45v-.04Z"/>
  <path d="M168.28,121.62c-3.48,1.59-6.51,3.03-9.59,4.35-1.89.8-3.86,1.47-5.81,2.08-1.56.49-2.97.16-4.14-1.11-1.53-1.67-1.71-3-.03-4.5,5.42-4.81,11.69-7.85,18.97-8.45,1.33-.11,2.89.24,4.02.92,1.14.68,1.94,1.98,2.76,3.11,1.15,1.6-.42,2.54-1.07,3.69-.3.53-.6,1.07-1.18,2.16,1.43-.46,2.34-.69,3.18-1.06,3.88-1.68,7.74-3.42,11.61-5.12,2.83-1.24,3.68-.73,4.32,2.78,2.91-1.78,5.72-3.53,8.56-5.22,1.93-1.14,3.48-.77,4.18,1.15.29.79,0,1.87-.24,2.76-.45,1.56-1.24,3.03-1.56,4.59-.37,1.75.15,2.49,1.97,2.61,1.7.11,3.52.05,5.12-.46,3.38-1.1,6.64-2.57,10.28-4.01-.43.57-.68,1.1-1.09,1.37-2.5,1.71-4.89,3.65-7.59,4.96-5.88,2.84-11.48-.8-11.76-7.42,0-.2-.1-.41-.23-.94-.75.31-1.52.54-2.19.94-2.7,1.62-5.35,3.31-8.04,4.94-1.09.65-2.16,1.58-3.53.43-1.53-1.26-1.25-2.59-.29-4.01.1-.14,0-.38,0-.96-2.57,1.2-4.97,2.32-7.39,3.42-1.39.62-2.74,1.3-4.18,1.81-2.83.98-4.5-.12-4.96-3.18-.07-.42-.05-.84-.1-1.67h0ZM169.33,117.34c-5.61.05-12.98,3.5-15.17,6.93,5.49-2.5,10.34-4.71,15.17-6.93Z"/>
  <path d="M204.21,90.72c2.89.19,5.76.38,8.65.57-2.83,1.55-5.64,1.36-8.65-.57Z"/>
</svg>